<svg version="1.0" xmlns="http://www.w3.org/2000/svg" width="300" height="300" viewBox="0 0 225 225"><path d="M110.8 15.1c-1.3.7-1.8 2.3-1.8 5.4V25h-5.1C98 25 95 26.3 95 29c0 3.4 2.8 5 8.6 5h5.4v6.9c0 6.6-.1 6.9-2.8 8-4.3 1.8-10.8 8.9-13.3 14.5-1.5 3.6-2.1 6.8-2.1 11.8l.1 6.8-4.2-2.6c-15.5-9.6-33-12.4-45.9-7.5-11.5 4.4-21.1 16.4-23.9 29.9-3.1 15.3 5.5 31.7 23.9 44.9 5.1 3.7 6.6 4.3 7.3 3.2 1.3-2.1 1.3-2.1-5-6.2-8-5.1-16.6-14.4-19.9-21.4-3.7-7.9-3.8-20.2-.3-28.1 3.1-6.9 11.3-14.4 18.3-16.8 6.9-2.3 19.4-2.3 27.3 0 15.4 4.5 33.9 17.7 41.2 29.1 1.5 2.5 3 4.5 3.3 4.5.3 0 1.4-1.7 2.5-3.7 2.8-5.3 16.1-18.2 22.8-22.2 17.2-10.1 34.3-12.4 48.1-6.2 5.7 2.5 14.1 10.3 16.9 15.6 1.6 3.1 2.1 5.9 2.2 12 0 7.2-.4 8.8-3.4 15-4 8-15.4 20-23.8 25-3.6 2.1-5.3 3.8-5.7 5.7-.8 4-3.5 4.2-10.9.8-27.9-12.6-71-12.8-102-.4-7 2.8-9.1 3.3-10.3 2.4-1.2-1.1-1.4-.2-1.4 6.3v7.6l4.4-2.5c27.4-15.3 84.2-15.6 114.9-.6l5.7 2.9v-14.3l7.3-5c10.9-7.4 20.7-17.7 24.8-25.9 3.9-8 5-18.3 2.9-26.2-3-10.5-15.6-22.3-27.9-26-11.8-3.6-28.3-1.4-39.8 5.3-2.3 1.3-4.4 2.4-4.6 2.4-.2 0-.5-2.4-.5-5.4 0-3.3-.9-7.4-2.2-10.3-2.4-5.5-8.9-12.6-13.2-14.4-2.7-1.1-2.8-1.4-2.8-8V34h5.4c5.8 0 8.6-1.6 8.6-5 0-2.7-3-4-8.9-4H117v-4.5c0-3.4-.5-4.7-1.9-5.5-2.3-1.2-2.2-1.2-4.3.1z"/><path d="M41.2 86.6c-9.8 4.9-14.8 15.8-12.3 26.9 2 9 10.4 18.6 22.1 25.3 2.5 1.4 5.2 3.1 6 3.8 1.2 1 2.6.9 7.5-.8 8.4-2.8 23.6-5.6 34.9-6.4l9.6-.7v-6.6c0-5.9-.4-7.4-3.7-13-5.5-9.2-17.2-19.9-27.5-24.9-9.8-4.9-14.9-6.1-24.4-6.2-5.6 0-8.1.5-12.2 2.6zM154.5 86.5c-13.6 4.9-27.7 17-34.4 29.4-2.6 4.9-3.1 7-3.1 12.4v6.5l6.3.7c12.3 1.3 24.3 3.6 32.7 6.4 7.9 2.7 8.7 2.8 11.5 1.4 5.9-3 15.3-10.3 20.2-15.7 8.1-8.8 11.1-17 9.2-25.5-1.3-6.1-5.3-10.9-12-14.6-4.6-2.5-6.7-3-14.4-3.2-7.6-.3-10.1 0-16 2.2zM86.8 164.5c-10.6 1.7-18.1 3.8-27.7 7.8-6 2.4-7.7 2.8-9.2 1.8-1.8-1-1.9-.7-1.9 6.3v7.5l7.3-3.4c26.8-12.8 72.7-13.9 104-2.5 4.5 1.7 9.4 3.9 11 5l2.7 2.1V181c0-7.7-.1-8-2-6.8-1.6 1-2.6 1-5.2-.1-20.8-8.5-28.9-10.1-51.8-10.6-12.9-.3-21.1 0-27.2 1z"/><path d="M93 183.1c-11.1 1.2-26.3 5.1-34.7 9l-6.8 3.1 8 3.9c8.7 4.1 19.4 7.1 32.4 9 11.5 1.6 37 .6 48.2-2 9.1-2.1 23.3-7.2 26.5-9.5 1.8-1.4 1.5-1.6-4.7-4.5-17.2-8.1-43.7-11.5-68.9-9z"/></svg>