<svg version="1.0" xmlns="http://www.w3.org/2000/svg" width="300" height="300" viewBox="0 0 225 225"><path d="M104 26.9c-6.9 2.1-13.2 7.5-16.5 14-2.3 4.6-3 13.1-1.5 18.6l1.3 4.5-5.2 5.5c-2.9 3-6.4 8.1-7.9 11.2-2.3 5.1-2.7 7.1-2.7 15.8 0 8.8.3 10.7 2.7 15.8 1.5 3.2 3.6 7 4.8 8.4l2 2.5-4.3 3c-10.6 7.6-18.1 17.1-24.8 31.3-4.9 10.5-7.7 22.2-8.5 35.7l-.7 10.8h136.6l-.6-11.8c-1.5-29.2-13.4-52.1-35.1-67.5-1.8-1.3-1.8-1.5.8-5.3 5-7.6 6.9-14.9 6.4-24.9-.4-7.7-.9-9.9-3.6-15.2-1.8-3.5-5.2-8.4-7.6-10.9-4-4.2-4.4-4.9-3.4-7.3.5-1.4 1-5.4 1.1-8.7.1-11.2-6.9-21.4-17.2-24.9-4.7-1.6-11.9-1.8-16.1-.6z"/></svg>